<svg width="200" height="53" viewBox="0 0 200 53" fill="none" xmlns="http://www.w3.org/2000/svg">
<path d="M64.7216 35V17.5455H71.267C72.608 17.5455 73.733 17.7784 74.642 18.2443C75.5568 18.7102 76.2472 19.3636 76.7131 20.2045C77.1847 21.0398 77.4205 22.0142 77.4205 23.1278C77.4205 24.2472 77.1818 25.2187 76.7045 26.0426C76.233 26.8608 75.5369 27.4943 74.6165 27.9432C73.696 28.3864 72.5653 28.608 71.2244 28.608H66.5625V25.983H70.7983C71.5824 25.983 72.2244 25.875 72.7244 25.6591C73.2244 25.4375 73.5938 25.1165 73.8324 24.696C74.0767 24.2699 74.1989 23.7472 74.1989 23.1278C74.1989 22.5085 74.0767 21.9801 73.8324 21.5426C73.5881 21.0994 73.2159 20.7642 72.7159 20.5369C72.2159 20.304 71.571 20.1875 70.7812 20.1875H67.8835V35H64.7216ZM73.7386 27.0909L78.0597 35H74.5312L70.2869 27.0909H73.7386ZM85.8026 35.2557C84.4901 35.2557 83.3565 34.983 82.402 34.4375C81.4531 33.8864 80.723 33.108 80.2116 32.1023C79.7003 31.0909 79.4446 29.9006 79.4446 28.5312C79.4446 27.1847 79.7003 26.0028 80.2116 24.9858C80.7287 23.9631 81.4503 23.1676 82.3764 22.5994C83.3026 22.0256 84.3906 21.7386 85.6406 21.7386C86.4474 21.7386 87.2088 21.8693 87.9247 22.1307C88.6463 22.3864 89.2827 22.7841 89.8338 23.3239C90.3906 23.8636 90.8281 24.5511 91.1463 25.3864C91.4645 26.2159 91.6236 27.2045 91.6236 28.3523V29.2983H80.8935V27.2188H88.6662C88.6605 26.6278 88.5327 26.1023 88.2827 25.642C88.0327 25.1761 87.6832 24.8097 87.2344 24.5426C86.7912 24.2756 86.2741 24.142 85.6832 24.142C85.0526 24.142 84.4986 24.2955 84.0213 24.6023C83.544 24.9034 83.1719 25.3011 82.9048 25.7955C82.6435 26.2841 82.5099 26.821 82.5043 27.4062V29.2216C82.5043 29.983 82.6435 30.6364 82.9219 31.1818C83.2003 31.7216 83.5895 32.1364 84.0895 32.4261C84.5895 32.7102 85.1747 32.8523 85.8452 32.8523C86.294 32.8523 86.7003 32.7898 87.0639 32.6648C87.4276 32.5341 87.7429 32.3438 88.0099 32.0938C88.277 31.8438 88.4787 31.5341 88.6151 31.1648L91.4957 31.4886C91.3139 32.25 90.9673 32.9148 90.456 33.483C89.9503 34.0455 89.3026 34.483 88.5128 34.7955C87.723 35.1023 86.8196 35.2557 85.8026 35.2557ZM98.0007 35.2642C97.1712 35.2642 96.424 35.1165 95.7592 34.821C95.1001 34.5199 94.5774 34.0767 94.1911 33.4915C93.8104 32.9062 93.62 32.1847 93.62 31.3267C93.62 30.5881 93.7564 29.9773 94.0291 29.4943C94.3018 29.0114 94.674 28.625 95.1456 28.3352C95.6172 28.0455 96.1484 27.8267 96.7393 27.679C97.3359 27.5256 97.9524 27.4148 98.5888 27.3466C99.3558 27.267 99.978 27.196 100.455 27.1335C100.933 27.0653 101.279 26.9631 101.495 26.8267C101.717 26.6847 101.827 26.4659 101.827 26.1705V26.1193C101.827 25.4773 101.637 24.9801 101.256 24.6278C100.876 24.2756 100.327 24.0994 99.6115 24.0994C98.8558 24.0994 98.2564 24.2642 97.8132 24.5938C97.3757 24.9233 97.0803 25.3125 96.9268 25.7614L94.0462 25.3523C94.2734 24.5568 94.6484 23.892 95.1712 23.358C95.6939 22.8182 96.3331 22.4148 97.0888 22.1477C97.8445 21.875 98.6797 21.7386 99.5945 21.7386C100.225 21.7386 100.853 21.8125 101.478 21.9602C102.103 22.108 102.674 22.3523 103.191 22.6932C103.708 23.0284 104.123 23.4858 104.435 24.0653C104.754 24.6449 104.913 25.3693 104.913 26.2386V35H101.947V33.2017H101.844C101.657 33.5653 101.393 33.9062 101.052 34.2244C100.717 34.5369 100.293 34.7898 99.782 34.983C99.2763 35.1705 98.6825 35.2642 98.0007 35.2642ZM98.8018 32.9972C99.4212 32.9972 99.9581 32.875 100.413 32.6307C100.867 32.3807 101.217 32.0511 101.461 31.642C101.711 31.233 101.836 30.7869 101.836 30.304V28.7614C101.739 28.8409 101.575 28.9148 101.342 28.983C101.114 29.0511 100.859 29.1108 100.575 29.1619C100.29 29.2131 100.009 29.2585 99.7308 29.2983C99.4524 29.3381 99.2109 29.3722 99.0064 29.4006C98.5462 29.4631 98.1342 29.5653 97.7706 29.7074C97.407 29.8494 97.12 30.0483 96.9098 30.304C96.6996 30.554 96.5945 30.8778 96.5945 31.2756C96.5945 31.8438 96.8018 32.2727 97.2166 32.5625C97.6314 32.8523 98.1598 32.9972 98.8018 32.9972ZM111.1 17.5455V35H108.015V17.5455H111.1ZM120.362 35V17.5455H131.714V20.196H123.524V24.9347H131.126V27.5852H123.524V32.3494H131.783V35H120.362ZM145.151 25.3693L142.338 25.6761C142.259 25.392 142.119 25.125 141.92 24.875C141.727 24.625 141.466 24.4233 141.136 24.2699C140.807 24.1165 140.403 24.0398 139.926 24.0398C139.284 24.0398 138.744 24.179 138.307 24.4574C137.875 24.7358 137.662 25.0966 137.668 25.5398C137.662 25.9205 137.801 26.2301 138.085 26.4688C138.375 26.7074 138.852 26.9034 139.517 27.0568L141.75 27.5341C142.989 27.8011 143.909 28.2244 144.511 28.804C145.119 29.3835 145.426 30.142 145.432 31.0795C145.426 31.9034 145.185 32.6307 144.707 33.2614C144.236 33.8864 143.58 34.375 142.739 34.7273C141.898 35.0795 140.932 35.2557 139.841 35.2557C138.239 35.2557 136.949 34.9205 135.972 34.25C134.994 33.5739 134.412 32.6335 134.224 31.429L137.233 31.1392C137.369 31.7301 137.659 32.1761 138.102 32.4773C138.545 32.7784 139.122 32.929 139.832 32.929C140.565 32.929 141.153 32.7784 141.597 32.4773C142.045 32.1761 142.27 31.804 142.27 31.3608C142.27 30.9858 142.125 30.6761 141.835 30.4318C141.551 30.1875 141.108 30 140.506 29.8693L138.273 29.4006C137.017 29.1392 136.088 28.6989 135.486 28.0795C134.884 27.4545 134.585 26.6648 134.591 25.7102C134.585 24.9034 134.804 24.2045 135.247 23.6136C135.696 23.017 136.318 22.5568 137.114 22.233C137.915 21.9034 138.838 21.7386 139.884 21.7386C141.418 21.7386 142.625 22.0653 143.506 22.7188C144.392 23.3722 144.94 24.2557 145.151 25.3693ZM154.513 21.9091V24.2955H146.987V21.9091H154.513ZM148.845 18.7727H151.93V31.0625C151.93 31.4773 151.993 31.7955 152.118 32.017C152.249 32.233 152.419 32.3807 152.629 32.4602C152.839 32.5398 153.072 32.5795 153.328 32.5795C153.521 32.5795 153.697 32.5653 153.857 32.5369C154.021 32.5085 154.146 32.483 154.232 32.4602L154.751 34.8722C154.587 34.929 154.351 34.9915 154.044 35.0597C153.743 35.1278 153.374 35.1676 152.936 35.179C152.163 35.2017 151.467 35.0852 150.848 34.8295C150.229 34.5682 149.737 34.1648 149.374 33.6193C149.016 33.0739 148.839 32.392 148.845 31.5739V18.7727ZM160.86 35.2642C160.031 35.2642 159.283 35.1165 158.619 34.821C157.96 34.5199 157.437 34.0767 157.05 33.4915C156.67 32.9062 156.479 32.1847 156.479 31.3267C156.479 30.5881 156.616 29.9773 156.888 29.4943C157.161 29.0114 157.533 28.625 158.005 28.3352C158.477 28.0455 159.008 27.8267 159.599 27.679C160.195 27.5256 160.812 27.4148 161.448 27.3466C162.215 27.267 162.837 27.196 163.315 27.1335C163.792 27.0653 164.138 26.9631 164.354 26.8267C164.576 26.6847 164.687 26.4659 164.687 26.1705V26.1193C164.687 25.4773 164.496 24.9801 164.116 24.6278C163.735 24.2756 163.187 24.0994 162.471 24.0994C161.715 24.0994 161.116 24.2642 160.673 24.5938C160.235 24.9233 159.94 25.3125 159.786 25.7614L156.906 25.3523C157.133 24.5568 157.508 23.892 158.031 23.358C158.553 22.8182 159.192 22.4148 159.948 22.1477C160.704 21.875 161.539 21.7386 162.454 21.7386C163.085 21.7386 163.712 21.8125 164.337 21.9602C164.962 22.108 165.533 22.3523 166.05 22.6932C166.567 23.0284 166.982 23.4858 167.295 24.0653C167.613 24.6449 167.772 25.3693 167.772 26.2386V35H164.806V33.2017H164.704C164.516 33.5653 164.252 33.9062 163.911 34.2244C163.576 34.5369 163.153 34.7898 162.641 34.983C162.136 35.1705 161.542 35.2642 160.86 35.2642ZM161.661 32.9972C162.281 32.9972 162.817 32.875 163.272 32.6307C163.727 32.3807 164.076 32.0511 164.32 31.642C164.57 31.233 164.695 30.7869 164.695 30.304V28.7614C164.599 28.8409 164.434 28.9148 164.201 28.983C163.974 29.0511 163.718 29.1108 163.434 29.1619C163.15 29.2131 162.869 29.2585 162.59 29.2983C162.312 29.3381 162.07 29.3722 161.866 29.4006C161.406 29.4631 160.994 29.5653 160.63 29.7074C160.266 29.8494 159.979 30.0483 159.769 30.304C159.559 30.554 159.454 30.8778 159.454 31.2756C159.454 31.8438 159.661 32.2727 160.076 32.5625C160.491 32.8523 161.019 32.9972 161.661 32.9972ZM177.411 21.9091V24.2955H169.886V21.9091H177.411ZM171.744 18.7727H174.829V31.0625C174.829 31.4773 174.891 31.7955 175.016 32.017C175.147 32.233 175.317 32.3807 175.528 32.4602C175.738 32.5398 175.971 32.5795 176.227 32.5795C176.42 32.5795 176.596 32.5653 176.755 32.5369C176.92 32.5085 177.045 32.483 177.13 32.4602L177.65 34.8722C177.485 34.929 177.249 34.9915 176.942 35.0597C176.641 35.1278 176.272 35.1676 175.835 35.179C175.062 35.2017 174.366 35.0852 173.746 34.8295C173.127 34.5682 172.636 34.1648 172.272 33.6193C171.914 33.0739 171.738 32.392 171.744 31.5739V18.7727ZM185.646 35.2557C184.334 35.2557 183.2 34.983 182.246 34.4375C181.297 33.8864 180.567 33.108 180.055 32.1023C179.544 31.0909 179.288 29.9006 179.288 28.5312C179.288 27.1847 179.544 26.0028 180.055 24.9858C180.572 23.9631 181.294 23.1676 182.22 22.5994C183.146 22.0256 184.234 21.7386 185.484 21.7386C186.291 21.7386 187.053 21.8693 187.768 22.1307C188.49 22.3864 189.126 22.7841 189.678 23.3239C190.234 23.8636 190.672 24.5511 190.99 25.3864C191.308 26.2159 191.467 27.2045 191.467 28.3523V29.2983H180.737V27.2188H188.51C188.504 26.6278 188.376 26.1023 188.126 25.642C187.876 25.1761 187.527 24.8097 187.078 24.5426C186.635 24.2756 186.118 24.142 185.527 24.142C184.896 24.142 184.342 24.2955 183.865 24.6023C183.388 24.9034 183.016 25.3011 182.749 25.7955C182.487 26.2841 182.354 26.821 182.348 27.4062V29.2216C182.348 29.983 182.487 30.6364 182.766 31.1818C183.044 31.7216 183.433 32.1364 183.933 32.4261C184.433 32.7102 185.018 32.8523 185.689 32.8523C186.138 32.8523 186.544 32.7898 186.908 32.6648C187.271 32.5341 187.587 32.3438 187.854 32.0938C188.121 31.8438 188.322 31.5341 188.459 31.1648L191.339 31.4886C191.158 32.25 190.811 32.9148 190.3 33.483C189.794 34.0455 189.146 34.483 188.357 34.7955C187.567 35.1023 186.663 35.2557 185.646 35.2557Z" fill="white"/>
<path d="M195.978 35.1875C195.461 35.1875 195.018 35.0057 194.648 34.642C194.279 34.2784 194.097 33.8352 194.103 33.3125C194.097 32.8011 194.279 32.3636 194.648 32C195.018 31.6364 195.461 31.4545 195.978 31.4545C196.478 31.4545 196.913 31.6364 197.282 32C197.657 32.3636 197.847 32.8011 197.853 33.3125C197.847 33.6591 197.756 33.9744 197.58 34.2585C197.41 34.5426 197.183 34.7699 196.898 34.9403C196.62 35.1051 196.313 35.1875 195.978 35.1875Z" fill="#40B5F9"/>
<circle cx="26.5" cy="26.5" r="26.5" fill="#40B5F9"/>
<rect x="14" y="23" width="24" height="13" fill="white"/>
<path d="M26 11L38.1244 23H13.8756L26 11Z" fill="white"/>
<line x1="14" y1="39.5" x2="38" y2="39.5" stroke="white" stroke-width="3"/>
</svg>
