<svg width="19" height="19" viewBox="0 0 19 19" fill="none" xmlns="http://www.w3.org/2000/svg">
<path d="M13.2606 5.63438C13.2644 5.63438 13.2694 5.63438 13.2744 5.63438C13.405 5.63438 13.5262 5.675 13.6256 5.745L13.6237 5.74375C13.6962 5.80688 13.745 5.89563 13.7569 5.99563V5.9975C13.7694 6.07375 13.7762 6.16125 13.7762 6.25063C13.7762 6.29125 13.775 6.33125 13.7719 6.37125V6.36563C13.6313 7.84625 13.0212 11.4369 12.7112 13.0944C12.58 13.7963 12.3219 14.0313 12.0719 14.0538C11.5287 14.1044 11.1163 13.695 10.59 13.35C9.76625 12.8094 9.30063 12.4731 8.50125 11.9462C7.57688 11.3381 8.17625 11.0025 8.7025 10.4562C8.84063 10.3125 11.235 8.13438 11.2819 7.93688C11.2844 7.925 11.2856 7.91188 11.2856 7.89813C11.2856 7.84938 11.2675 7.805 11.2381 7.77125C11.2056 7.75 11.165 7.73813 11.1225 7.73813C11.0944 7.73813 11.0675 7.74375 11.0425 7.75313L11.0437 7.7525C10.9612 7.77125 9.64542 8.64083 7.09625 10.3613C6.81813 10.5806 6.46688 10.7194 6.08438 10.7356H6.08063C5.53875 10.67 5.04687 10.5494 4.58 10.3775L4.62625 10.3925C4.04 10.2012 3.57438 10.1006 3.61438 9.77687C3.63563 9.60854 3.86771 9.43625 4.31063 9.26C7.03896 8.07125 8.85833 7.28771 9.76875 6.90938C10.7731 6.37625 11.9375 5.9375 13.1619 5.65312L13.26 5.63375L13.2606 5.63438ZM9.39062 0C4.20187 0.0125 0 4.22187 0 9.4125C0 14.6106 4.21375 18.825 9.4125 18.825C14.6113 18.825 18.825 14.6112 18.825 9.4125C18.825 4.22187 14.6231 0.0125 9.43563 0H9.43437C9.41979 0 9.40521 0 9.39062 0Z" fill="#40B5F9"/>
</svg>
