<svg width="14" height="11" viewBox="0 0 14 11" fill="none" xmlns="http://www.w3.org/2000/svg">
<path d="M12.2977 0.212545C12.2977 0.212545 10.6082 0 6.97964 0C3.46882 0 1.70164 0.212545 1.70164 0.212545C1.25028 0.212714 0.81746 0.392135 0.498359 0.711355C0.179259 1.03057 8.74631e-08 1.46346 1.19002e-07 1.91482V8.30009C-8.34651e-05 8.52363 0.0438643 8.74501 0.129334 8.95157C0.214804 9.15813 0.340123 9.34583 0.498134 9.50396C0.656146 9.66209 0.843756 9.78755 1.05025 9.87318C1.25675 9.9588 1.47809 10.0029 1.70164 10.003C1.70164 10.003 3.34473 10.2143 6.97964 10.2143C10.6126 10.2143 12.2977 10.003 12.2977 10.003C12.5214 10.0032 12.7429 9.95923 12.9495 9.8737C13.1561 9.78817 13.3439 9.66273 13.502 9.50456C13.6601 9.34639 13.7855 9.15859 13.8709 8.95192C13.9564 8.74524 14.0002 8.52374 14 8.30009V1.91355C14 1.69006 13.956 1.46876 13.8704 1.26231C13.7848 1.05585 13.6594 0.868276 13.5013 0.710307C13.3432 0.552337 13.1556 0.42707 12.9491 0.341661C12.7425 0.256253 12.5212 0.212378 12.2977 0.212545ZM5.12973 7.63636V2.58045L9.66954 5.10682L5.12973 7.63636Z" fill="#40B5F9"/>
</svg>
